<svg width="30" height="30" viewBox="0 0 30 30" fill="none" xmlns="http://www.w3.org/2000/svg">
<path d="M28.7199 15.0804H27.6785C27.5809 13.4969 27.1953 11.9687 26.5279 10.532C26.426 10.3121 26.1651 10.2168 25.9451 10.3187C25.7252 10.4208 25.6297 10.6817 25.7318 10.9017C26.345 12.2221 26.7027 13.6258 26.7989 15.0804H6.69708C6.4547 15.0804 6.25832 15.2767 6.25832 15.5191C6.25832 15.7615 6.4547 15.9579 6.69708 15.9579H28.7199C28.9419 15.9579 29.1222 16.1385 29.1222 16.3605V16.8961C29.1222 17.1181 28.9419 17.2987 28.7199 17.2987H1.28014C1.05812 17.2987 0.877762 17.1181 0.877762 16.8961V16.3605C0.877762 16.1385 1.05812 15.9579 1.28014 15.9579H4.65157C4.89395 15.9579 5.09056 15.7615 5.09056 15.5191C5.09056 15.2767 4.89395 15.0804 4.65157 15.0804H3.20114C3.39455 12.1651 4.6447 9.45306 6.75179 7.40182C8.78242 5.4252 11.4063 4.26157 14.2106 4.07709C14.2122 4.07709 14.2138 4.07732 14.2154 4.07709C14.3349 4.06931 14.453 4.06335 14.5697 4.05901C14.593 4.05832 14.6162 4.05717 14.6395 4.05649C14.6812 4.05511 14.7226 4.0542 14.7636 4.05328C14.8423 4.05191 14.921 4.05054 15 4.05054C15.1048 4.05054 15.2097 4.0526 15.3143 4.05534C15.3452 4.05626 15.3758 4.05717 15.407 4.05809C15.4875 4.06084 15.5679 4.06496 15.6482 4.06931C15.6908 4.07159 15.7333 4.07388 15.7761 4.07663C19.379 4.31329 22.6936 6.18692 24.7563 9.19122C24.8934 9.39081 25.1667 9.44185 25.3665 9.30452C25.5663 9.16742 25.6171 8.89413 25.4798 8.69432C23.4501 5.73785 20.2908 3.80151 16.799 3.30209C17.0178 2.96243 17.1407 2.56258 17.1407 2.14372C17.1407 1.90523 17.0343 1.46555 16.3216 1.20325C15.9657 1.07233 15.4962 1 15 1C14.5036 1 14.0341 1.07233 13.6782 1.20325C12.9655 1.46555 12.8593 1.90523 12.8593 2.14372C12.8593 2.56143 12.9817 2.9606 13.1992 3.29958C10.548 3.67471 8.08914 4.87497 6.13953 6.77286C3.86192 8.99004 2.51633 11.9261 2.32155 15.0801H1.28014C0.574265 15.0804 0 15.6546 0 16.3605V16.8961C0 17.6022 0.574265 18.1764 1.28014 18.1764H6.00769C5.77171 18.338 5.54558 18.5193 5.33386 18.7205L5.32516 18.7287C5.31166 18.7413 5.29884 18.7548 5.28717 18.7692L3.20366 21.2993C2.94228 21.1334 2.63283 21.0729 2.3275 21.1315C2.00912 21.1924 1.73378 21.3737 1.55205 21.6419L0.732651 22.8502C0.357971 23.403 0.502625 24.158 1.05492 24.5332L6.66183 28.3422C6.86508 28.4802 7.09991 28.5521 7.34047 28.5521C7.41692 28.5521 7.49405 28.5448 7.57095 28.5301C7.8891 28.4693 8.16444 28.288 8.34618 28.0197L9.16557 26.8115C9.54025 26.2587 9.39583 25.5036 8.84354 25.1285L8.81149 25.1068C9.20174 24.6639 9.72198 24.3464 10.288 24.2155C11.4807 23.9392 12.8842 24.1171 13.8361 24.2748C15.0137 24.4698 16.2506 24.4032 17.4131 24.082L19.029 23.6355C20.1054 23.338 21.096 22.8369 21.9736 22.1462C21.9802 22.1409 21.9866 22.1356 21.993 22.1299L24.7673 19.6729C25.2402 19.311 25.3432 18.6843 25.18 18.1764H28.7199C29.4257 18.1764 30 17.6022 30 16.8963V16.3605C30 15.6546 29.4257 15.0804 28.7199 15.0804ZM15 1.87776C15.7391 1.87776 16.1819 2.06064 16.263 2.16226C16.257 2.5786 16.0464 2.96266 15.7038 3.19292C15.6175 3.18834 15.5324 3.18468 15.4475 3.18147C15.4189 3.18056 15.3902 3.17918 15.3616 3.1785C15.2392 3.17484 15.1183 3.173 15 3.173C14.916 3.173 14.8304 3.17415 14.7441 3.17598C14.7025 3.17667 14.6606 3.17781 14.6187 3.17918C14.5688 3.18079 14.5184 3.18239 14.4681 3.18445C14.4106 3.18697 14.3532 3.18948 14.296 3.19269C13.9533 2.96243 13.743 2.57837 13.737 2.16226C13.8181 2.06064 14.2609 1.87776 15 1.87776ZM18.1471 18.3882C18.1144 18.314 18.0753 18.2435 18.0311 18.1764H22.2404L20.4204 19.381L17.826 20.1315L17.7379 20.1336C18.2373 19.7173 18.4195 19.0064 18.1471 18.3882ZM13.3882 18.1764L12.7549 18.3085L12.2653 18.1764H13.3882ZM8.4391 26.3189L7.61993 27.5272C7.56981 27.6013 7.49382 27.6512 7.40593 27.6682C7.31827 27.6849 7.229 27.6666 7.15508 27.6162L1.54816 23.8072C1.39572 23.7037 1.3559 23.4954 1.45935 23.343L2.27875 22.1345C2.32887 22.0606 2.40463 22.0104 2.49252 21.9937C2.51381 21.9896 2.5351 21.9875 2.55615 21.9875C2.62253 21.9875 2.6873 22.0075 2.74338 22.0457L3.04619 22.2512C3.04619 22.2514 3.04642 22.2514 3.04642 22.2514L8.3503 25.8545C8.50273 25.958 8.54256 26.1665 8.4391 26.3189ZM24.2287 18.9798C24.2182 18.9874 24.2081 18.9956 24.1983 19.0043L21.4211 21.4643C20.638 22.0784 19.7546 22.5243 18.7953 22.7893L17.1794 23.2359C16.1389 23.5236 15.0325 23.5833 13.9799 23.4089C12.954 23.2391 11.4352 23.0489 10.09 23.3604C9.31091 23.5407 8.59955 23.9884 8.08205 24.611L3.93402 21.7932L5.94727 19.3483C6.70876 18.6294 7.67441 18.2025 8.59909 18.1764H8.61694C8.90373 18.1716 9.20723 18.2561 9.52835 18.346C9.5929 18.3639 9.65721 18.382 9.72176 18.3994L12.6276 19.1833C12.6942 19.2011 12.7641 19.2032 12.8316 19.189L16.6374 18.3955C16.81 18.3598 16.9913 18.3948 17.1348 18.4921C17.2275 18.555 17.2998 18.6415 17.344 18.742C17.4744 19.0379 17.3515 19.3854 17.0599 19.5355L15.7615 20.2231C15.5818 20.3183 15.4912 20.5243 15.5422 20.7211C15.5935 20.9182 15.7727 21.0523 15.9764 21.0496L17.9025 21.0079C17.9407 21.007 17.9784 21.0013 18.0148 20.9908L20.7287 20.2057C20.7715 20.1933 20.812 20.1746 20.8491 20.1501L23.587 18.3378C23.8168 18.1959 24.1225 18.0792 24.2853 18.3193C24.4121 18.506 24.4151 18.8423 24.2287 18.9798Z" fill="black"/>
</svg>
