<svg width="30" height="30" viewBox="0 0 30 30" fill="none" xmlns="http://www.w3.org/2000/svg">
<g clip-path="url(#clip0)">
<path d="M5.04121 4.31592C4.79623 4.31592 4.59766 4.51449 4.59766 4.75947V5.93487C4.59766 6.17985 4.79617 6.37842 5.04121 6.37842C5.28619 6.37842 5.48477 6.17985 5.48477 5.93487V4.75947C5.48477 4.51455 5.28619 4.31592 5.04121 4.31592Z" fill="black"/>
<path d="M5.04121 7.48047C4.79623 7.48047 4.59766 7.67904 4.59766 7.92403V9.09942C4.59766 9.3444 4.79617 9.54298 5.04121 9.54298C5.28619 9.54298 5.48477 9.3444 5.48477 9.09942V7.92403C5.48477 7.6791 5.28619 7.48047 5.04121 7.48047Z" fill="black"/>
<path d="M7.21075 6.48633H6.03535C5.79037 6.48633 5.5918 6.6849 5.5918 6.92988C5.5918 7.17486 5.79037 7.37344 6.03535 7.37344H7.21075C7.45573 7.37344 7.6543 7.17486 7.6543 6.92988C7.6543 6.68496 7.45573 6.48633 7.21075 6.48633Z" fill="black"/>
<path d="M4.04668 6.48633H2.87129C2.62631 6.48633 2.42773 6.6849 2.42773 6.92988C2.42773 7.17486 2.62631 7.37344 2.87129 7.37344H4.04668C4.29166 7.37344 4.49024 7.17486 4.49024 6.92988C4.49024 6.68496 4.29166 6.48633 4.04668 6.48633Z" fill="black"/>
<path d="M27.4478 17.1078L24.4325 13.9816C24.4325 13.9816 24.4325 13.9816 24.4324 13.9816L24.4319 13.981C24.4315 13.9807 24.4311 13.9805 24.4308 13.9801C24.3845 13.9324 24.3272 13.8946 24.2617 13.8712L21.6552 12.9416C21.4244 12.8592 21.1707 12.9796 21.0884 13.2103C21.0061 13.441 21.1265 13.6948 21.3572 13.777L22.7922 14.2889L15.4403 16.9109L8.08846 14.2889L9.5652 13.7622C9.79588 13.6799 9.91623 13.4262 9.83391 13.1955C9.75164 12.9648 9.49787 12.8445 9.26719 12.9268L6.6191 13.8712C6.55365 13.8946 6.49634 13.9324 6.45 13.9801C6.44964 13.9805 6.44923 13.9807 6.44888 13.981L6.44835 13.9816H6.4483L3.43294 17.1078C3.32829 17.2162 3.28593 17.3704 3.32032 17.517C3.35472 17.6637 3.46124 17.7829 3.60315 17.8335L8.91246 19.7271C8.96174 19.7447 9.01201 19.753 9.06146 19.753C9.24375 19.753 9.41455 19.6398 9.47924 19.4584C9.56156 19.2277 9.44121 18.9739 9.21053 18.8917L4.54862 17.229L6.88869 14.803L14.6439 17.5689L12.3038 19.9949L10.7992 19.4583C10.5685 19.3759 10.3148 19.4963 10.2325 19.727C10.1502 19.9577 10.2705 20.2115 10.5012 20.2937L12.2754 20.9265C12.4396 20.9851 12.6227 20.942 12.7436 20.8167L15.4404 18.0209L18.1372 20.8167C18.2222 20.9048 18.3382 20.9523 18.4565 20.9523C18.5064 20.9523 18.5567 20.9438 18.6054 20.9264L27.2776 17.8334C27.4195 17.7829 27.526 17.6636 27.5604 17.517C27.5949 17.3703 27.5525 17.2162 27.4478 17.1078ZM18.5769 19.9948L16.2369 17.5688L23.9921 14.8029L26.3321 17.2288L18.5769 19.9948Z" fill="black"/>
<path d="M20.5058 27.7499C20.4236 27.5193 20.1698 27.399 19.939 27.4812L15.4401 29.0858L7.21133 26.1509V20.1008C7.21133 19.8558 7.01276 19.6572 6.76777 19.6572C6.52279 19.6572 6.32422 19.8558 6.32422 20.1008V26.4637C6.32422 26.6512 6.44217 26.8185 6.61871 26.8814L15.291 29.9745C15.3392 29.9917 15.3896 30.0003 15.44 30.0003C15.4905 30.0003 15.5409 29.9917 15.5891 29.9745L20.2371 28.3168C20.4678 28.2344 20.5881 27.9807 20.5058 27.7499Z" fill="black"/>
<path d="M24.1128 19.6572C23.8679 19.6572 23.6693 19.8558 23.6693 20.1008V26.151L21.6481 26.8719C21.4175 26.9542 21.2971 27.2079 21.3794 27.4386C21.4441 27.6201 21.6149 27.7332 21.7972 27.7332C21.8467 27.7332 21.897 27.7249 21.9463 27.7073L24.2619 26.8814C24.4385 26.8185 24.5564 26.6512 24.5564 26.4637V20.1008C24.5564 19.8558 24.3578 19.6572 24.1128 19.6572Z" fill="black"/>
<path d="M15.4406 19.6333C15.1956 19.6333 14.9971 19.8319 14.9971 20.0769V27.6168C14.9971 27.8618 15.1956 28.0604 15.4406 28.0604C15.6856 28.0604 15.8842 27.8618 15.8842 27.6168V20.0769C15.8842 19.8319 15.6856 19.6333 15.4406 19.6333Z" fill="black"/>
<path d="M24.9371 5.03233L24.0961 4.86182C23.4406 4.72887 22.9311 4.21952 22.7983 3.56397L22.6277 2.72297C22.5498 2.33842 22.2212 2.06982 21.8288 2.06982C21.4364 2.06982 21.1079 2.33842 21.0299 2.72303L20.8594 3.56397C20.7265 4.21946 20.2171 4.72893 19.5615 4.86182L18.7205 5.03233C18.3359 5.11026 18.0674 5.4388 18.0674 5.8312C18.0674 6.22366 18.3359 6.5522 18.7205 6.63013L19.5615 6.80063C20.217 6.93353 20.7265 7.44294 20.8594 8.09849L21.0299 8.93949C21.1079 9.32404 21.4364 9.59263 21.8288 9.59263C22.2212 9.59263 22.5498 9.32404 22.6277 8.93943L22.7983 8.09849C22.9311 7.443 23.4406 6.93353 24.0961 6.80063L24.9371 6.63013C25.3217 6.5522 25.5903 6.22366 25.5903 5.8312C25.5903 5.4388 25.3217 5.11032 24.9371 5.03233ZM23.9198 5.93122C22.9142 6.13507 22.1327 6.91659 21.9288 7.92224L21.8288 8.41536L21.7289 7.92224C21.525 6.91659 20.7435 6.13513 19.7378 5.93122L19.2447 5.83126L19.7378 5.7313C20.7434 5.52739 21.5249 4.74586 21.7289 3.74028L21.8288 3.24715L21.9288 3.74028C22.1326 4.74581 22.9142 5.52739 23.9198 5.7313L24.4129 5.83126L23.9198 5.93122Z" fill="black"/>
<path d="M16.0342 3.79934L14.955 3.58055C14.0642 3.39997 13.3719 2.70762 13.1913 1.81682L12.9725 0.737638C12.8844 0.303282 12.5135 0 12.0704 0C11.6273 0 11.2564 0.303282 11.1684 0.737521L10.9496 1.8167C10.769 2.70751 10.0766 3.39985 9.18584 3.58044L8.10666 3.79923C7.67242 3.88729 7.36914 4.25819 7.36914 4.70128C7.36914 5.14437 7.67242 5.51532 8.10666 5.60339L9.18584 5.82218C10.0766 6.00277 10.769 6.69511 10.9496 7.58591L11.1684 8.6651C11.2564 9.09933 11.6273 9.40262 12.0704 9.40262C12.5135 9.40262 12.8845 9.09933 12.9725 8.6651L13.1913 7.58591C13.3719 6.69511 14.0642 6.00277 14.955 5.82218L16.0342 5.60339C16.4684 5.51532 16.7717 5.14442 16.7717 4.70134C16.7717 4.25825 16.4685 3.88735 16.0342 3.79934ZM15.8579 4.73397L14.7787 4.95276C13.5378 5.20437 12.5734 6.16876 12.3218 7.40961L12.103 8.48879C12.0991 8.50824 12.0977 8.5155 12.0704 8.5155C12.0432 8.5155 12.0416 8.50824 12.0378 8.48879L11.819 7.40961C11.5674 6.1687 10.603 5.20431 9.36215 4.95276L8.28297 4.73397C8.26352 4.73005 8.25625 4.72858 8.25625 4.70134C8.25625 4.67409 8.26357 4.67257 8.28297 4.6687L9.36215 4.44991C10.603 4.19831 11.5674 3.23391 11.819 1.99307L12.0378 0.913889C12.0417 0.894435 12.0432 0.88717 12.0704 0.88717C12.0977 0.88717 12.0992 0.894435 12.103 0.913889L12.3218 1.99307C12.5734 3.23397 13.5378 4.19837 14.7787 4.44991L15.8579 4.6687C15.8773 4.67263 15.8846 4.67409 15.8846 4.70134C15.8846 4.72858 15.8773 4.73011 15.8579 4.73397Z" fill="black"/>
<path d="M12.3709 14.0553C11.1959 11.1632 8.56525 8.59999 8.45392 8.4923C8.27779 8.32208 7.99713 8.32683 7.82685 8.5029C7.65658 8.67898 7.66127 8.9597 7.83728 9.13003C7.86324 9.15517 10.4458 11.6735 11.5491 14.3892C11.6191 14.5614 11.785 14.6659 11.9602 14.6659C12.0158 14.6659 12.0723 14.6554 12.1269 14.6332C12.3539 14.5409 12.4631 14.2822 12.3709 14.0553Z" fill="black"/>
<path d="M13.9709 8.54492C13.7259 8.54492 13.5273 8.7435 13.5273 8.98848V13.069C13.5273 13.3139 13.7259 13.5125 13.9709 13.5125C14.2159 13.5125 14.4145 13.3139 14.4145 13.069V8.98848C14.4144 8.7435 14.2158 8.54492 13.9709 8.54492Z" fill="black"/>
<path d="M21.6418 10.1074C21.4515 9.95309 21.1721 9.98215 21.0179 10.1725C19.9161 11.5308 19.1067 12.8371 18.6118 14.055C18.5196 14.2819 18.6289 14.5406 18.8558 14.6328C18.9105 14.655 18.967 14.6655 19.0226 14.6655C19.1977 14.6655 19.3637 14.5611 19.4337 14.3888C20.0089 12.973 20.9873 11.6183 21.7068 10.7312C21.8611 10.5411 21.832 10.2618 21.6418 10.1074Z" fill="black"/>
<path d="M17.7834 7.12925C17.5404 7.09761 17.318 7.26905 17.2865 7.51198L16.5721 13.0118C16.5406 13.2547 16.7119 13.4772 16.9548 13.5087C16.9742 13.5112 16.9934 13.5125 17.0125 13.5125C17.232 13.5125 17.4228 13.3495 17.4518 13.126L18.1661 7.62618C18.1977 7.38331 18.0263 7.16077 17.7834 7.12925Z" fill="black"/>
</g>
<defs>
<clipPath id="clip0">
<rect width="30" height="30" fill="white"/>
</clipPath>
</defs>
</svg>
